<?xml version="1.0" encoding="UTF-8"?>
<svg width="40px" height="40px" viewBox="0 0 40 40" version="1.1" xmlns="http://www.w3.org/2000/svg" xmlns:xlink="http://www.w3.org/1999/xlink">
    <!-- Generator: sketchtool 61 (101010) - https://sketch.com -->
    <title>0037CCE1-468A-4190-A274-F17E80657E18</title>
    <desc>Created with sketchtool.</desc>
    <g id="Design-" stroke="none" stroke-width="1" fill="none" fill-rule="evenodd">
        <g id="Social-Alpha/-1440/-9.1-Problem-Detail---Overview-" transform="translate(-1170.000000, -100.000000)">
            <g id="Intro-Card" transform="translate(150.000000, 80.000000)">
                <g id="Top-Right-Actions" transform="translate(895.000000, 20.000000)">
                    <g id="Edit-Icon" transform="translate(125.000000, 0.000000)">
                        <circle id="Oval" fill="#E1E1E1" cx="20" cy="20" r="20"></circle>
                        <g id="noun_Pencil_792926" transform="translate(10.000000, 10.000000)" fill="#2D2D2D" fill-rule="nonzero">
                            <path d="M18.7,1.3 C17.9,0.5 16.8,0 15.6,0 C14.4,0 13.3,0.5 12.5,1.3 L0,13.8 L0,20 L6.2,20 L18.7,7.5 C19.5,6.6 20,5.5 20,4.4 C20,3.2 19.5,2.1 18.7,1.3 Z M12.2,4.5 L15.6,7.9 L6.8,16.7 L3.4,13.3 L12.2,4.5 Z M2,18 L2,14.6 L5.4,18 L2,18 Z M17.3,6.1 L16.9,6.5 L13.5,3.1 L13.9,2.7 C14.8,1.8 16.4,1.8 17.3,2.7 C17.7,3.1 18,3.7 18,4.4 C18,5 17.8,5.6 17.3,6.1 Z" id="Shape"></path>
                        </g>
                    </g>
                </g>
            </g>
        </g>
    </g>
</svg>