<?xml version="1.0" encoding="UTF-8"?>
<svg width="26px" height="26px" viewBox="0 0 26 26" version="1.1" xmlns="http://www.w3.org/2000/svg" xmlns:xlink="http://www.w3.org/1999/xlink">
    <!-- Generator: sketchtool 61 (101010) - https://sketch.com -->
    <title>94D5B037-6400-47C4-B470-A7747790C2FD</title>
    <desc>Created with sketchtool.</desc>
    <g id="Design-" stroke="none" stroke-width="1" fill="none" fill-rule="evenodd">
        <g id="Social-Alpha/-1440/-6.-Dashboard" transform="translate(-351.000000, -2061.000000)">
            <g id="Areas-you-may-be-interested-in-" transform="translate(150.000000, 166.000000)">
                <g id="Problem-and-Solution-Cards" transform="translate(0.000000, 46.000000)">
                    <g id="Solution-Card" transform="translate(0.000000, 1658.998753)">
                        <g id="Problem-Card-Copy-3">
                            <g id="Card">
                                <g id="Likes,-Watchlist,-Expert" transform="translate(20.000000, 190.000000)">
                                    <g id="Expert" transform="translate(181.000000, 0.000000)">
                                        <g id="Expert-Icon">
                                            <circle id="Bg" stroke="#E1E1E1" stroke-width="1.2" fill="#F7F7F7" cx="13" cy="13" r="12.4"></circle>
                                            <g id="Icon" transform="translate(7.000000, 7.000000)" fill="#717171" fill-rule="nonzero">
                                                <polygon id="Path-Copy-7" points="10.54625 5.04552469 9.62 4.09259259 8.9375 4.79475309 10.54625 6.5 13.8125 3.13966049 13.13 2.4375"></polygon>
                                                <path d="M8.848125,7.3125 C6.435,6.361875 3.729375,6.361875 1.389375,7.3125 C0.585,7.605 -3.64153152e-13,8.409375 -3.64153152e-13,9.36 L-3.64153152e-13,12.43125 L10.2375,12.43125 L10.2375,9.36 C10.2375,8.409375 9.725625,7.605 8.848125,7.3125 Z M8.775,10.96875 L1.4625,10.96875 L1.4625,9.36 C1.4625,9.0675 1.681875,8.775 1.90125,8.701875 C3.94875,7.8975 6.28875,7.8975 8.33625,8.701875 C8.62875,8.775 8.775,9.0675 8.775,9.36 L8.775,10.96875 Z" id="Shape"></path>
                                                <path d="M5.11875,5.85 C6.7275,5.85 8.04375,4.53375 8.04375,2.925 C8.04375,1.31625 6.7275,-7.27418126e-13 5.11875,-7.27418126e-13 C3.51,-7.27418126e-13 2.19375,1.31625 2.19375,2.925 C2.19375,4.53375 3.51,5.85 5.11875,5.85 Z M5.11875,1.4625 C5.923125,1.4625 6.58125,2.120625 6.58125,2.925 C6.58125,3.729375 5.923125,4.3875 5.11875,4.3875 C4.314375,4.3875 3.65625,3.729375 3.65625,2.925 C3.65625,2.120625 4.314375,1.4625 5.11875,1.4625 Z" id="Shape"></path>
                                            </g>
                                        </g>
                                    </g>
                                </g>
                            </g>
                        </g>
                    </g>
                </g>
            </g>
        </g>
    </g>
</svg>