<?xml version="1.0" encoding="UTF-8"?>
<svg width="32px" height="32px" viewBox="0 0 32 32" version="1.1" xmlns="http://www.w3.org/2000/svg" xmlns:xlink="http://www.w3.org/1999/xlink">
    <!-- Generator: sketchtool 61 (101010) - https://sketch.com -->
    <title>CCF17CBC-93E8-48DD-A86A-D9D95821C8AA</title>
    <desc>Created with sketchtool.</desc>
    <g id="UI-Kit" stroke="none" stroke-width="1" fill="none" fill-rule="evenodd">
        <g id="Sprint-Component" transform="translate(-717.000000, -1017.000000)">
            <g id="Like-Icon-2" transform="translate(717.000000, 1017.000000)">
                <circle id="Bg" stroke="#E1E1E1" stroke-width="2" fill="#F7F7F7" cx="16" cy="16" r="15"></circle>
                <path d="M19.1070458,8.61538462 L19.1070458,9.43589744 L10.4213315,9.43589744 C9.66968315,9.43589744 8.91803479,10.0102564 8.75100183,10.7487179 L7.41473809,17.3128205 C7.33122161,17.8051282 7.41473809,18.2974359 7.74880403,18.7076923 C8.08286996,19.0358974 8.58396886,19.2820513 9.08506776,19.2820513 L11.2564963,19.2820513 C10.504848,20.1846154 10.4213315,21.4153846 11.0894634,22.3179487 C11.5070458,22.974359 12.2586941,23.3846154 13.093859,23.3846154 C13.7619908,23.3846154 14.4301227,23.1384615 14.8477051,22.6461538 L18.2718809,19.2820513 L19.1070458,19.2820513 L19.1070458,20.1025641 L24.1180348,20.1025641 L24.1180348,8.61538462 L19.1070458,8.61538462 Z M17.6037491,17.6410256 L13.6784744,21.4974359 C13.5114414,21.6615385 13.3444084,21.7435897 13.093859,21.7435897 C12.8433095,21.7435897 12.5927601,21.5794872 12.4257271,21.4153846 C12.1751777,21.0871795 12.2586941,20.5948718 12.5927601,20.2666667 L15.2652875,17.6410256 L9.08506776,17.6410256 L10.4213315,11.0769231 L19.1070458,11.0769231 L19.1070458,17.6410256 L17.6037491,17.6410256 Z M22.4477051,18.4615385 L20.7773755,18.4615385 L20.7773755,10.2564103 L22.4477051,10.2564103 L22.4477051,18.4615385 Z" id="Shape" fill="#717171" fill-rule="nonzero" transform="translate(15.751325, 16.000000) rotate(-180.000000) translate(-15.751325, -16.000000) "></path>
            </g>
        </g>
    </g>
</svg>