<?xml version="1.0" encoding="UTF-8"?>
<svg width="12px" height="16px" viewBox="0 0 12 16" version="1.1" xmlns="http://www.w3.org/2000/svg" xmlns:xlink="http://www.w3.org/1999/xlink">
    <!-- Generator: sketchtool 61 (101010) - https://sketch.com -->
    <title>E3329301-7F7D-4184-94E4-89171728DF6F</title>
    <desc>Created with sketchtool.</desc>
    <g id="Design-" stroke="none" stroke-width="1" fill="none" fill-rule="evenodd">
        <g id="Social-Alpha/-1440/-13.2-Validate-Popup" transform="translate(-431.000000, -470.000000)" fill="#2D2D2D" fill-rule="nonzero">
            <g id="1440---Validate-Popup" transform="translate(391.000000, 196.000000)">
                <g id="Add-Attachment" transform="translate(40.000000, 173.000000)">
                    <g id="Group-2" transform="translate(0.000000, 98.000000)">
                        <g id="Group-3">
                            <path d="M5.6,3 C2.48,3 0,5.48 0,8.6 L0,15 L1.6,15 L1.6,8.6 C1.6,6.36 3.36,4.6 5.6,4.6 C7.84,4.6 9.6,6.36 9.6,8.6 L9.6,15 C9.6,16.36 8.56,17.4 7.2,17.4 C5.84,17.4 4.8,16.36 4.8,15 L4.8,8.6 C4.8,8.12 5.12,7.8 5.6,7.8 C6.08,7.8 6.4,8.12 6.4,8.6 L6.4,15 L8,15 L8,8.6 C8,7.24 6.96,6.2 5.6,6.2 C4.24,6.2 3.2,7.24 3.2,8.6 L3.2,15 C3.2,17.24 4.96,19 7.2,19 C9.44,19 11.2,17.24 11.2,15 L11.2,8.6 C11.2,5.48 8.72,3 5.6,3 Z" id="Path"></path>
                        </g>
                    </g>
                </g>
            </g>
        </g>
    </g>
</svg>