<?xml version="1.0" encoding="UTF-8"?>
<svg width="20px" height="24px" viewBox="0 0 20 24" version="1.1" xmlns="http://www.w3.org/2000/svg" xmlns:xlink="http://www.w3.org/1999/xlink">
    <!-- Generator: sketchtool 61 (101010) - https://sketch.com -->
    <title>CAA6C891-A359-40FD-81E9-51E61FC4E90C</title>
    <desc>Created with sketchtool.</desc>
    <g id="Design-" stroke="none" stroke-width="1" fill="none" fill-rule="evenodd">
        <g id="Social-Alpha/-1440/-8.-Problem-/-Solution-Template" transform="translate(-170.000000, -181.000000)" fill="#FFFFFF" fill-rule="nonzero">
            <g id="Problem-List" transform="translate(150.000000, 168.000000)">
                <g id="Problem-Listed-Title">
                    <g id="Problem-Icon" transform="translate(20.000000, 13.000000)">
                        <g id="Group">
                            <path d="M19.2746939,8.41749271 C18.6685714,4.13527697 15.1530612,0.685714286 10.7889796,0.209912536 C4.97020408,-0.38483965 -9.39692768e-13,4.13527697 -9.39692768e-13,9.72594752 C-9.39692768e-13,12.6997085 1.45469388,15.6734694 4.00040816,17.4577259 C4.48530612,17.8145773 4.84897959,18.5282799 4.84897959,19.2419825 L4.84897959,20.4314869 L14.5469388,20.4314869 L14.5469388,19.2419825 C14.5469388,18.5282799 14.9106122,17.8145773 15.2742857,17.4577259 C18.304898,15.4355685 19.7595918,11.9860058 19.2746939,8.41749271 Z M13.9408163,15.554519 C13.0922449,16.1492711 12.6073469,16.9819242 12.2436735,18.0524781 L10.9102041,18.0524781 L8.48571429,18.0524781 L7.1522449,18.0524781 C6.90979592,16.9819242 6.30367347,16.1492711 5.45510204,15.4355685 C3.5155102,14.1271137 2.4244898,11.9860058 2.4244898,9.72594752 C2.4244898,5.56268222 6.18244898,2.11311953 10.5465306,2.58892128 C13.8195918,2.94577259 16.4865306,5.56268222 16.8502041,8.65539359 C17.2138776,11.3912536 16.1228571,14.0081633 13.9408163,15.554519 Z" id="Shape"></path>
                            <path d="M9.69795918,4.96793003 C7.63714286,4.96793003 6.06122449,6.51428571 6.06122449,8.53644315 L8.48571429,8.53644315 C8.48571429,7.82274052 8.97061224,7.34693878 9.69795918,7.34693878 C10.4253061,7.34693878 10.9102041,7.82274052 10.9102041,8.53644315 C10.9102041,8.89329446 10.7889796,9.25014577 10.4253061,9.48804665 C9.21306122,10.3206997 8.48571429,11.6291545 8.48571429,12.9376093 L8.48571429,13.2944606 L10.9102041,13.2944606 L10.9102041,12.9376093 C10.9102041,12.1049563 11.5163265,11.6291545 11.88,11.3912536 C12.7285714,10.677551 13.3346939,9.60699708 13.3346939,8.53644315 C13.3346939,6.51428571 11.7587755,4.96793003 9.69795918,4.96793003 Z" id="Path"></path>
                            <rect id="Rectangle" x="8.48571429" y="14.483965" width="2.4244898" height="2.37900875"></rect>
                            <path d="M12.122449,21.6209913 L7.27346939,21.6209913 C6.54612245,21.6209913 6.06122449,22.096793 6.06122449,22.8104956 C6.06122449,23.5241983 6.54612245,24 7.27346939,24 L12.122449,24 C12.8497959,24 13.3346939,23.5241983 13.3346939,22.8104956 C13.3346939,22.096793 12.8497959,21.6209913 12.122449,21.6209913 Z" id="Path"></path>
                        </g>
                    </g>
                </g>
            </g>
        </g>
    </g>
</svg>