<?xml version="1.0" encoding="UTF-8"?>
<svg width="14px" height="18px" viewBox="0 0 14 18" version="1.1" xmlns="http://www.w3.org/2000/svg" xmlns:xlink="http://www.w3.org/1999/xlink">
    <!-- Generator: sketchtool 61.2 (101010) - https://sketch.com -->
    <title>CADDF5AA-20A6-434A-9CD2-E242E4CC942A</title>
    <desc>Created with sketchtool.</desc>
    <g id="Design-" stroke="none" stroke-width="1" fill="none" fill-rule="evenodd">
        <g id="Social-Alpha/-General/-Add-P-S-Dropdown" transform="translate(-28.000000, -30.000000)" fill="#2D2D2D" fill-rule="nonzero">
            <g id="problem" transform="translate(28.000000, 30.000000)">
                <g id="Group">
                    <path d="M13.6285714,6.77142857 C13.2,3.68571429 10.7142857,1.2 7.62857143,0.857142857 C3.51428571,0.428571429 0,3.68571429 0,7.71428571 C0,9.85714286 1.02857143,12 2.82857143,13.2857143 C3.17142857,13.5428571 3.42857143,14.0571429 3.42857143,14.5714286 L3.42857143,15.4285714 L10.2857143,15.4285714 L10.2857143,14.5714286 C10.2857143,14.0571429 10.5428571,13.5428571 10.8,13.2857143 C12.9428571,11.8285714 13.9714286,9.34285714 13.6285714,6.77142857 Z M9.85714286,11.9142857 C9.25714286,12.3428571 8.91428571,12.9428571 8.65714286,13.7142857 L7.71428571,13.7142857 L6,13.7142857 L5.05714286,13.7142857 C4.88571429,12.9428571 4.45714286,12.3428571 3.85714286,11.8285714 C2.48571429,10.8857143 1.71428571,9.34285714 1.71428571,7.71428571 C1.71428571,4.71428571 4.37142857,2.22857143 7.45714286,2.57142857 C9.77142857,2.82857143 11.6571429,4.71428571 11.9142857,6.94285714 C12.1714286,8.91428571 11.4,10.8 9.85714286,11.9142857 Z" id="Shape"></path>
                    <path d="M6.85714286,4.28571429 C5.4,4.28571429 4.28571429,5.4 4.28571429,6.85714286 L6,6.85714286 C6,6.34285714 6.34285714,6 6.85714286,6 C7.37142857,6 7.71428571,6.34285714 7.71428571,6.85714286 C7.71428571,7.11428571 7.62857143,7.37142857 7.37142857,7.54285714 C6.51428571,8.14285714 6,9.08571429 6,10.0285714 L6,10.2857143 L7.71428571,10.2857143 L7.71428571,10.0285714 C7.71428571,9.42857143 8.14285714,9.08571429 8.4,8.91428571 C9,8.4 9.42857143,7.62857143 9.42857143,6.85714286 C9.42857143,5.4 8.31428571,4.28571429 6.85714286,4.28571429 Z" id="Path"></path>
                    <rect id="Rectangle" x="6" y="11.1428571" width="1.71428571" height="1.71428571"></rect>
                    <path d="M8.57142857,16.2857143 L5.14285714,16.2857143 C4.62857143,16.2857143 4.28571429,16.6285714 4.28571429,17.1428571 C4.28571429,17.6571429 4.62857143,18 5.14285714,18 L8.57142857,18 C9.08571429,18 9.42857143,17.6571429 9.42857143,17.1428571 C9.42857143,16.6285714 9.08571429,16.2857143 8.57142857,16.2857143 Z" id="Path"></path>
                </g>
            </g>
        </g>
    </g>
</svg>