<?xml version="1.0" encoding="UTF-8"?>
<svg width="16px" height="16px" viewBox="0 0 16 16" version="1.1" xmlns="http://www.w3.org/2000/svg" xmlns:xlink="http://www.w3.org/1999/xlink">
    <!-- Generator: sketchtool 61.2 (101010) - https://sketch.com -->
    <title>AE17D8CC-DCB2-4DB4-B5A2-BEDB05EE6646</title>
    <desc>Created with sketchtool.</desc>
    <g id="Design-" stroke="none" stroke-width="1" fill="none" fill-rule="evenodd">
        <g id="Social-Alpha/-General/-Profile-Dropdown" transform="translate(-27.000000, -30.000000)" fill="#2D2D2D" fill-rule="nonzero">
            <g id="Group-32" transform="translate(12.000000, 12.000000)">
                <g id="profile" transform="translate(15.000000, 18.000000)">
                    <path d="M13.6,0 L2.4,0 C1.04,0 0,1.04 0,2.4 L0,13.6 C0,14.96 1.04,16 2.4,16 L13.6,16 C14.96,16 16,14.96 16,13.6 L16,2.4 C16,1.04 14.96,0 13.6,0 Z M14.4,13.6 C14.4,14.08 14.08,14.4 13.6,14.4 L2.4,14.4 C1.92,14.4 1.6,14.08 1.6,13.6 L1.6,2.4 C1.6,1.92 1.92,1.6 2.4,1.6 L13.6,1.6 C14.08,1.6 14.4,1.92 14.4,2.4 L14.4,13.6 Z" id="Shape"></path>
                    <path d="M8,8 C9.36,8 10.4,6.96 10.4,5.6 C10.4,4.24 9.36,3.2 8,3.2 C6.64,3.2 5.6,4.24 5.6,5.6 C5.6,6.96 6.64,8 8,8 Z M8,4.8 C8.48,4.8 8.8,5.12 8.8,5.6 C8.8,6.08 8.48,6.4 8,6.4 C7.52,6.4 7.2,6.08 7.2,5.6 C7.2,5.12 7.52,4.8 8,4.8 Z" id="Shape"></path>
                    <path d="M11.12,9.2 C9.12,8.64 6.96,8.64 4.96,9.2 C3.92,9.52 3.2,10.48 3.2,11.52 L3.2,12.8 L4.8,12.8 L4.8,11.52 C4.8,11.2 5.04,10.88 5.36,10.72 C7.12,10.24 8.96,10.24 10.64,10.72 C10.96,10.8 11.2,11.12 11.2,11.52 L11.2,12.8 L12.8,12.8 L12.8,11.52 C12.8,10.48 12.08,9.52 11.12,9.2 Z" id="Path"></path>
                </g>
            </g>
        </g>
    </g>
</svg>