<?xml version="1.0" encoding="UTF-8"?>
<svg width="20px" height="20px" viewBox="0 0 20 20" version="1.1" xmlns="http://www.w3.org/2000/svg" xmlns:xlink="http://www.w3.org/1999/xlink">
    <!-- Generator: sketchtool 61 (101010) - https://sketch.com -->
    <title>506631AF-FF27-477C-83C1-9A23006C59A7</title>
    <desc>Created with sketchtool.</desc>
    <g id="Design-" stroke="none" stroke-width="1" fill="none" fill-rule="evenodd">
        <g id="Social-Alpha/-1440/-1.-Landing-Page" transform="translate(-1097.000000, -20.000000)" fill="#2D2D2D" fill-rule="nonzero">
            <g id="1440---Pre-Log-In-Header">
                <g id="RHS" transform="translate(1097.000000, 19.000000)">
                    <path d="M14.6770683,13.9095053 C15.6612447,12.5655168 16.2499273,10.9146745 16.2499273,9.12503031 C16.2499273,4.64504272 12.6049058,1 8.12494424,1 C3.64498272,1 0,4.64504272 0,9.12503031 C0,13.6050179 3.64502151,17.2500606 8.12498303,17.2500606 C9.91461678,17.2500606 11.5656046,16.661297 12.9095853,15.677115 L18.2324394,21 L20,19.2324291 C20,19.2323903 14.6770683,13.9095053 14.6770683,13.9095053 L14.6770683,13.9095053 Z M8.12498303,14.7500364 C5.02317877,14.7500364 2.5000097,12.2268526 2.5000097,9.12503031 C2.5000097,6.023208 5.02317877,3.50002425 8.12498303,3.50002425 C11.2267873,3.50002425 13.7499564,6.023208 13.7499564,9.12503031 C13.7499564,12.2268526 11.2267485,14.7500364 8.12498303,14.7500364 Z" id="Search"></path>
                </g>
            </g>
        </g>
    </g>
</svg>