<?xml version="1.0" encoding="UTF-8"?>
<svg width="40px" height="40px" viewBox="0 0 40 40" version="1.1" xmlns="http://www.w3.org/2000/svg" xmlns:xlink="http://www.w3.org/1999/xlink">
    <!-- Generator: sketchtool 61 (101010) - https://sketch.com -->
    <title>3E02235A-FABA-477A-9819-31644A7418C0</title>
    <desc>Created with sketchtool.</desc>
    <g id="Design-" stroke="none" stroke-width="1" fill="none" fill-rule="evenodd">
        <g id="Social-Alpha/-1440/-9.1-Problem-Detail---Overview-" transform="translate(-1230.000000, -100.000000)">
            <g id="Intro-Card" transform="translate(150.000000, 80.000000)">
                <g id="Top-Right-Actions" transform="translate(895.000000, 20.000000)">
                    <g id="Share-Icon" transform="translate(185.000000, 0.000000)">
                        <circle id="Oval-Copy-3" fill="#E1E1E1" cx="20" cy="20" r="20"></circle>
                        <path d="M25,24 C24.4,24 23.9,24.2 23.4,24.5 L17.8,21 C17.9,20.7 18,20.3 18,20 C18,19.7 17.9,19.3 17.8,19 L23.4,15.5 C23.9,15.8 24.4,16 25,16 C26.7,16 28,14.7 28,13 C28,11.3 26.7,10 25,10 C23.3,10 22,11.3 22,13 C22,13.3 22.1,13.7 22.2,14 L16.6,17.5 C16.1,17.2 15.6,17 15,17 C13.3,17 12,18.3 12,20 C12,21.7 13.3,23 15,23 C15.6,23 16.1,22.8 16.6,22.5 L22.2,26 C22.1,26.3 22,26.6 22,27 C22,28.7 23.3,30 25,30 C26.7,30 28,28.7 28,27 C28,25.3 26.7,24 25,24 Z M25,12 C25.6,12 26,12.4 26,13 C26,13.6 25.6,14 25,14 C24.4,14 24,13.6 24,13 C24,12.4 24.4,12 25,12 Z M15,21 C14.4,21 14,20.6 14,20 C14,19.4 14.4,19 15,19 C15.6,19 16,19.4 16,20 C16,20.6 15.6,21 15,21 Z M25,28 C24.4,28 24,27.6 24,27 C24,26.4 24.4,26 25,26 C25.6,26 26,26.4 26,27 C26,27.6 25.6,28 25,28 Z" id="Shape" fill="#2D2D2D" fill-rule="nonzero"></path>
                    </g>
                </g>
            </g>
        </g>
    </g>
</svg>