<?xml version="1.0" encoding="UTF-8"?>
<svg width="32px" height="30px" viewBox="0 0 32 30" version="1.1" xmlns="http://www.w3.org/2000/svg" xmlns:xlink="http://www.w3.org/1999/xlink">
    <!-- Generator: sketchtool 61 (101010) - https://sketch.com -->
    <title>818DF5B1-12F6-4B6C-8393-F3A7E006A9F2</title>
    <desc>Created with sketchtool.</desc>
    <g id="Design-" stroke="none" stroke-width="1" fill="none" fill-rule="evenodd">
        <g id="Social-Alpha/-1440/-1.-Landing-Page" transform="translate(-745.000000, -850.000000)" fill="#FFFFFF" fill-rule="nonzero">
            <g id="Solution-Listed" transform="translate(730.000000, 840.000000)">
                <g id="Solution-Listed-Title">
                    <g id="Solution-Icon" transform="translate(15.000000, 10.000000)">
                        <g id="noun_Light-Bulb_794640-(1)" transform="translate(7.113600, 5.502400)">
                            <g id="Group">
                                <path d="M18.85104,8.60624 C18.25824,4.33808 14.82,0.89984 10.55184,0.4256 C4.86096,-0.1672 0,4.33808 0,9.9104 C0,12.8744 1.42272,15.8384 3.91248,17.6168 C4.38672,17.97248 4.7424,18.68384 4.7424,19.3952 L4.7424,20.5808 L14.2272,20.5808 L14.2272,19.3952 C14.2272,18.68384 14.58288,17.97248 14.93856,17.6168 C17.90256,15.60128 19.32528,12.16304 18.85104,8.60624 Z M13.6344,15.71984 C12.80448,16.31264 12.33024,17.14256 11.97456,18.2096 L10.6704,18.2096 L10.6704,11.80736 L14.2272,9.55472 L12.92304,7.5392 L9.4848,9.67328 L6.04656,7.5392 L4.7424,9.55472 L8.2992,11.80736 L8.2992,18.2096 L6.99504,18.2096 C6.75792,17.14256 6.16512,16.31264 5.3352,15.60128 C3.43824,14.29712 2.3712,12.16304 2.3712,9.9104 C2.3712,5.7608 6.04656,2.32256 10.31472,2.7968 C13.51584,3.15248 16.12416,5.7608 16.47984,8.84336 C16.83552,11.57024 15.76848,14.17856 13.6344,15.71984 Z" id="Shape"></path>
                                <path d="M11.856,21.7664 L7.1136,21.7664 C6.40224,21.7664 5.928,22.24064 5.928,22.952 C5.928,23.66336 6.40224,24.1376 7.1136,24.1376 L11.856,24.1376 C12.56736,24.1376 13.0416,23.66336 13.0416,22.952 C13.0416,22.24064 12.56736,21.7664 11.856,21.7664 Z" id="Path"></path>
                            </g>
                        </g>
                        <g id="noun_Light-Bulb_799621">
                            <g id="Group" transform="translate(0.592800, 0.000000)">
                                <rect id="Rectangle" x="0" y="13.338" width="3.08256" height="2.964"></rect>
                                <rect id="Rectangle" x="27.74304" y="13.338" width="3.08256" height="2.964"></rect>
                                <polygon id="Rectangle" transform="translate(25.135379, 5.394776) rotate(-135.000000) translate(-25.135379, -5.394776) " points="23.6533934 3.91279061 26.6766444 3.85351118 26.617365 6.87676219 23.594114 6.93604162"></polygon>
                                <rect id="Rectangle" x="13.87152" y="0" width="3.08256" height="2.964"></rect>
                                <polygon id="Rectangle" transform="translate(5.527523, 5.393739) rotate(-45.000000) translate(-5.527523, -5.393739) " points="3.98625807 3.85247378 7.00950908 3.91175321 7.06878851 6.93500422 4.0455375 6.87572479"></polygon>
                            </g>
                        </g>
                    </g>
                </g>
            </g>
        </g>
    </g>
</svg>