<?xml version="1.0" encoding="UTF-8"?>
<svg width="32px" height="32px" viewBox="0 0 32 32" version="1.1" xmlns="http://www.w3.org/2000/svg" xmlns:xlink="http://www.w3.org/1999/xlink">
    <!-- Generator: sketchtool 61 (101010) - https://sketch.com -->
    <title>44156ED3-D097-4F44-8FDD-73B4A1C0AB6A</title>
    <desc>Created with sketchtool.</desc>
    <g id="UI-Kit" stroke="none" stroke-width="1" fill="none" fill-rule="evenodd">
        <g id="Sprint-Component" transform="translate(-777.000000, -1017.000000)">
            <g id="Watchlist-Icon" transform="translate(777.000000, 1017.000000)">
                <g transform="translate(0.200000, 0.000000)" id="Group-18">
                    <g>
                        <circle id="Oval" stroke="#E1E1E1" stroke-width="2" fill="#F7F7F7" cx="15.6" cy="15.6" r="14.6"></circle>
                        <g id="noun_Eye_793687-Copy-4" transform="translate(6.000000, 9.600000)" fill="#717171" fill-rule="nonzero">
                            <g id="Group">
                                <path d="M18.48,6.12857143 C18.3857143,5.84571429 14.6142857,0 9.42857143,0 C4.24285714,0 0.471428571,5.84571429 0.377142857,6.12857143 L0,6.6 L0.282857143,7.07142857 C0.471428571,7.35428571 4.24285714,13.2 9.42857143,13.2 C14.6142857,13.2 18.3857143,7.35428571 18.48,7.07142857 L18.8571429,6.6 L18.48,6.12857143 Z M9.42857143,11.3142857 C6.12857143,11.3142857 3.3,7.92 2.26285714,6.6 C3.20571429,5.28 6.03428571,1.88571429 9.42857143,1.88571429 C12.7285714,1.88571429 15.5571429,5.28 16.5942857,6.6 C15.6514286,7.92 12.7285714,11.3142857 9.42857143,11.3142857 Z" id="Shape"></path>
                                <path d="M9.42857143,2.82857143 C7.35428571,2.82857143 5.65714286,4.52571429 5.65714286,6.6 C5.65714286,8.67428571 7.35428571,10.3714286 9.42857143,10.3714286 C11.5028571,10.3714286 13.2,8.67428571 13.2,6.6 C13.2,4.52571429 11.5028571,2.82857143 9.42857143,2.82857143 Z M9.42857143,8.48571429 C8.39142857,8.48571429 7.54285714,7.63714286 7.54285714,6.6 C7.54285714,5.56285714 8.39142857,4.71428571 9.42857143,4.71428571 C10.4657143,4.71428571 11.3142857,5.56285714 11.3142857,6.6 C11.3142857,7.63714286 10.4657143,8.48571429 9.42857143,8.48571429 Z" id="Shape"></path>
                            </g>
                        </g>
                    </g>
                </g>
            </g>
        </g>
    </g>
</svg>